<?xml version="1.0" standalone="no"?>
<!DOCTYPE svg PUBLIC "-//W3C//DTD SVG 20010904//EN"
 "http://www.w3.org/TR/2001/REC-SVG-20010904/DTD/svg10.dtd">
<svg version="1.0" xmlns="http://www.w3.org/2000/svg"
 width="198.000000pt" height="163.000000pt" viewBox="0 0 198.000000 163.000000"
 preserveAspectRatio="xMidYMid meet">

<g transform="translate(0.000000,163.000000) scale(0.100000,-0.100000)"
fill="#000000" stroke="none">
<path d="M565 1424 c-22 -13 -36 -24 -31 -24 5 0 3 -6 -3 -14 -13 -15 -54 -29
-46 -15 8 12 -70 -17 -98 -36 -31 -22 -15 -19 33 6 23 12 43 19 46 16 11 -11
-86 -48 -108 -41 -20 6 -21 5 -10 -9 11 -13 10 -15 -7 -10 -10 3 -28 0 -38 -7
-17 -11 -17 -11 0 -6 11 4 16 2 11 -5 -3 -6 -15 -8 -26 -6 -16 5 -17 3 -6 -11
9 -11 9 -14 1 -8 -7 4 -30 2 -52 -4 -29 -8 -39 -15 -35 -25 4 -9 0 -15 -10
-15 -9 0 -16 -6 -16 -12 0 -10 -2 -10 -9 0 -7 11 -9 10 -14 -2 -5 -12 1 -18
23 -23 17 -3 30 -11 30 -17 0 -6 5 -4 10 4 5 8 10 12 10 8 0 -4 15 -1 32 7 22
9 39 10 50 4 11 -6 18 -6 18 0 0 5 -6 11 -12 14 -16 5 140 80 227 109 22 7 46
19 53 26 20 18 36 15 115 -22 40 -18 82 -36 94 -40 11 -4 27 -13 33 -21 7 -8
20 -15 30 -15 29 0 100 -42 100 -59 0 -13 2 -13 9 -2 7 12 13 12 40 0 17 -8
31 -17 31 -21 0 -5 9 -8 20 -8 34 0 90 -28 90 -45 0 -12 9 -15 36 -13 19 1 38
-3 42 -9 10 -15 45 -24 59 -15 8 5 9 13 3 22 -6 8 -10 11 -10 7 0 -5 -7 -1
-16 7 -8 9 -21 13 -27 9 -7 -3 -9 -3 -5 2 14 15 -84 75 -123 75 -12 0 -19 3
-16 7 8 8 -48 43 -69 43 -23 0 -88 30 -80 37 3 4 12 1 18 -5 7 -7 17 -12 22
-12 21 0 -39 34 -64 36 -29 2 -215 93 -206 101 3 3 20 -4 38 -15 18 -11 44
-23 58 -26 14 -4 3 6 -25 20 -27 15 -65 29 -83 30 -29 3 -79 34 -53 34 5 0 13
-4 16 -10 3 -5 14 -10 23 -10 11 1 7 6 -13 17 -27 15 -32 15 -57 0 -29 -16
-37 -10 -16 11 17 17 9 14 -37 -14z m-315 -189 c-30 -17 -40 -18 -40 -6 0 8
22 16 55 19 6 1 -1 -5 -15 -13z m905 -83 c-3 -3 -11 0 -18 7 -9 10 -8 11 6 5
10 -3 15 -9 12 -12z m40 -20 c-3 -3 -11 0 -18 7 -9 10 -8 11 6 5 10 -3 15 -9
12 -12z"/>
<path d="M625 1320 c-3 -5 -1 -10 4 -10 6 0 11 5 11 10 0 6 -2 10 -4 10 -3 0
-8 -4 -11 -10z"/>
<path d="M860 1315 c14 -8 30 -14 35 -14 6 0 -1 6 -15 14 -14 8 -29 14 -35 14
-5 0 1 -6 15 -14z"/>
<path d="M498 1263 c7 -3 16 -2 19 1 4 3 -2 6 -13 5 -11 0 -14 -3 -6 -6z"/>
<path d="M766 1251 c5 -5 23 -12 39 -16 30 -6 30 -6 -4 10 -38 17 -49 19 -35
6z"/>
<path d="M420 1223 c0 -15 2 -16 10 -3 8 13 10 12 10 -2 0 -11 7 -18 18 -17
10 0 12 3 5 6 -7 2 -13 11 -13 19 0 8 -7 14 -15 14 -8 0 -15 -8 -15 -17z"/>
<path d="M395 1210 c3 -5 8 -10 11 -10 2 0 4 5 4 10 0 6 -5 10 -11 10 -5 0 -7
-4 -4 -10z"/>
<path d="M412 1184 c-7 -8 -8 -14 -3 -14 10 0 25 19 20 25 -2 1 -10 -3 -17
-11z"/>
<path d="M338 1173 c7 -3 16 -2 19 1 4 3 -2 6 -13 5 -11 0 -14 -3 -6 -6z"/>
<path d="M1073 1113 c9 -2 23 -2 30 0 6 3 -1 5 -18 5 -16 0 -22 -2 -12 -5z"/>
<path d="M1088 1053 c7 -3 16 -2 19 1 4 3 -2 6 -13 5 -11 0 -14 -3 -6 -6z"/>
<path d="M1265 1032 c-3 -3 -5 -12 -5 -21 0 -9 -52 -99 -116 -201 l-115 -185
70 -3 c39 -2 71 -5 71 -8 0 -2 -5 -12 -10 -22 -11 -17 -87 -203 -97 -234 -3
-11 -20 -20 -42 -24 -20 -3 -79 -14 -131 -25 -164 -32 -330 -50 -485 -51 -119
0 -141 -3 -105 -10 25 -5 135 -7 245 -4 202 4 278 13 666 80 228 38 338 49
494 44 135 -3 141 -2 102 11 -31 11 -95 15 -237 15 -181 1 -282 -8 -444 -41
l-30 -5 37 50 c20 28 57 81 83 119 26 37 50 70 53 73 10 9 91 128 91 134 0 3
-31 6 -70 6 -38 0 -70 3 -70 6 0 3 12 49 26 102 49 180 52 199 37 199 -7 0
-15 -3 -18 -5z"/>
<path d="M110 195 c0 -12 17 -15 95 -15 78 0 95 3 95 15 0 12 -17 15 -95 15
-78 0 -95 -3 -95 -15z"/>
<path d="M390 135 c-27 -41 -50 -77 -50 -80 0 -3 8 -5 18 -5 10 0 33 25 56 61
32 50 42 58 50 46 6 -8 26 -35 43 -61 18 -25 40 -46 48 -46 13 0 14 4 4 23
-30 56 -91 137 -104 137 -8 0 -37 -34 -65 -75z"/>
<path d="M632 128 l3 -83 76 -3 c42 -1 88 2 102 7 26 10 27 13 23 75 -2 35 -7
69 -10 75 -5 7 -44 11 -102 11 l-95 0 3 -82z m168 37 c0 -12 -14 -15 -70 -15
-56 0 -70 3 -70 15 0 12 14 15 70 15 56 0 70 -3 70 -15z m8 -67 c3 -16 -6 -18
-72 -18 -70 0 -76 2 -76 20 0 19 5 21 72 18 60 -2 73 -6 76 -20z"/>
<path d="M910 195 c0 -12 17 -15 95 -15 78 0 95 3 95 15 0 12 -17 15 -95 15
-78 0 -95 -3 -95 -15z"/>
<path d="M1172 133 l3 -78 98 -3 c82 -2 97 0 97 13 0 12 -15 15 -85 15 l-85 0
0 65 c0 52 -3 65 -15 65 -13 0 -15 -13 -13 -77z"/>
<path d="M1420 195 c0 -12 17 -15 95 -15 78 0 95 3 95 15 0 12 -17 15 -95 15
-78 0 -95 -3 -95 -15z"/>
<path d="M1699 183 c-10 -26 -6 -119 6 -131 6 -7 175 -3 186 4 26 16 0 24 -76
24 l-85 0 0 50 0 50 85 0 c47 0 85 4 85 9 0 15 -29 21 -111 21 -77 0 -80 -1
-90 -27z"/>
<path d="M110 100 c0 -38 4 -50 15 -50 10 0 15 10 15 29 0 35 13 41 96 41 50
0 64 3 64 15 0 12 -17 15 -95 15 l-95 0 0 -50z"/>
<path d="M910 125 c0 -13 15 -15 92 -13 62 2 93 7 96 16 3 9 -20 12 -92 12
-80 0 -96 -3 -96 -15z"/>
<path d="M1420 125 c0 -13 14 -15 93 -13 53 2 92 7 92 13 0 6 -39 11 -92 13
-79 2 -93 0 -93 -13z"/>
<path d="M910 65 c0 -12 17 -15 95 -15 78 0 95 3 95 15 0 12 -17 15 -95 15
-78 0 -95 -3 -95 -15z"/>
<path d="M1420 65 c0 -12 17 -15 95 -15 78 0 95 3 95 15 0 12 -17 15 -95 15
-78 0 -95 -3 -95 -15z"/>
</g>
</svg>
